
        <svg xmlns="http://www.w3.org/2000/svg" xmlns:xlink="http://www.w3.org/1999/xlink" version="1.1" width="3162.2609888017064" height="788.6301215447588" viewBox="0 -48.67829664051192 3162.2609888017064 788.6301215447588">
			
			<g transform="scale(8.11304944008532) translate(10, 10)">
				<defs id="SvgjsDefs3077"/><g id="SvgjsG3078" featureKey="tOsHRK-0" transform="matrix(0.8495092817244613,0,0,0.8495092817244613,-15.362525539605567,-12.872417607205211)" fill="#fff"><g xmlns="http://www.w3.org/2000/svg"><path d="M75.831,81.262c-0.461,4.555-4.121,7.827-8.179,7.309l-34.53-4.418c-4.055-0.521-6.968-4.632-6.507-9.187   l6.035-59.515c0.464-4.555,4.123-7.826,8.182-7.307l34.529,4.417c4.057,0.52,6.969,4.632,6.506,9.187L75.831,81.262z"/><path d="M28.725,87.08c-4.055-0.519-6.969-4.632-6.508-9.187l6.036-59.514c0.108-1.073,0.401-2.072,0.829-2.969   h-3.607c-4.083,0-7.391,3.716-7.391,8.301v59.896c0,4.586,3.308,8.302,7.391,8.302h34.754c0.866,0,1.693-0.177,2.467-0.484   L28.725,87.08z"/></g></g><g id="SvgjsG3079" featureKey="dVtZHI-0" transform="matrix(2.1051576362087117,0,0,2.1051576362087117,74,6.0636574025919145)" fill="#fff"><path d="M12.36 20 c-0.74 0 -1.94 -0.24 -1.94 -1.84 c0 -0.44 0.44 -2.36 0.96 -4.62 c-1.64 2.66 -3.22 5.26 -3.22 6.12 l-0.02 0 l0.02 0 s-0.62 0.24 -1.24 0.24 c-0.7 0 -1.44 -0.28 -1.44 -1.5 l0.02 -7.58 c-1.36 3.44 -3.2 7.72 -3.2 9.14 c0 0 -0.22 0.04 -0.5 0.04 c-0.68 0 -1.8 -0.24 -1.8 -1.84 c0 -1.12 4.72 -11.5 4.72 -13.4 c0.02 0 0.06 0 0.08 0.02 c0.26 0.06 1 0.3 1.52 0.68 l0.24 0.1 c1.18 0 1.18 4.98 1.18 9 c1.76 -3.14 5.36 -8.48 5.36 -9.8 c0 0 0.04 0 0.1 0.04 l0 -0.08 s2.2 0.56 2.2 1.62 c0 1.98 -2.5 11.38 -2.5 13.62 c0 0 -0.22 0.04 -0.54 0.04 z M15.22 20.04 l-0.12 0 c-1.22 -0.06 -1.84 -1.18 -1.84 -1.58 c0 -2.18 2.06 -8.86 5.78 -8.86 c1.26 0 1.92 1.18 1.92 1.58 c0 0.48 -0.12 1.16 -0.34 1.68 c0 0 -0.84 2.44 -4.26 2.74 c-0.38 1.02 -0.64 1.98 -0.64 2.62 l0 0.14 c2.12 -0.62 3.24 -2.54 3.24 -3.12 c0 0 0.84 0.28 0.84 1.5 c0 0.38 -1.88 3.24 -4.58 3.3 z M16.8 14.620000000000001 c1 -0.52 1.52 -1.78 1.52 -1.78 c0 -0.04 0.14 -0.5 0.2 -1 c-0.6 0.7 -1.22 1.72 -1.72 2.78 z M33.540000000000006 20.04 c0 0 -2.46 -0.44 -2.46 -1.84 c0 -1.52 1.68 -5.14 1.68 -6.74 l-0.02 -0.24 c-1.48 1.1 -3.06 3.78 -4.12 5.86 c-0.2 0.94 -0.32 1.92 -0.32 2.96 c0 0 -0.44 -0.08 -0.96 -0.28 l-0.02 0 c-0.68 -0.28 -1.48 -0.76 -1.48 -1.56 c0 -1.52 1.7 -5.18 1.7 -6.76 l-0.02 -0.22 c-1.48 1.1 -3.04 3.74 -4.1 5.8 c-0.22 1.12 -0.36 2.18 -0.36 3.02 c0 0 -2.34 0 -2.34 -1.7 c0 -0.74 2.08 -8.74 2.96 -8.74 c0 0 1.72 0.34 1.72 1.36 l-0.02 0 c-0.2 0 -0.62 1 -1.06 2.44 c1.08 -1.92 2.4 -3.6 3.48 -3.78 l0.06 0 l0.12 -0.02 c1.26 0 1.92 1.18 1.92 1.58 c0 0.66 -0.14 1.4 -0.36 2.22 c1.1 -1.92 2.4 -3.6 3.48 -3.78 l0.06 0 l0.14 -0.02 c1.26 0 1.92 1.18 1.92 1.58 c0 2.18 -1.6 5.24 -1.6 8.86 z M37.06 20.04 c-1.26 0 -1.92 -1.18 -1.92 -1.58 c0 -2.18 2.06 -8.86 5.78 -8.86 c1.78 0 2.46 0.98 2.46 2.18 c0 2.12 -1.98 8.26 -6.32 8.26 z M37.60000000000001 17.94 c1.82 -0.84 3.44 -4.54 3.44 -6.28 l-0.04 -0.38 c-1.48 1.1 -3.22 4.82 -3.4 6.66 z M45.64 20.04 c0 0 -2.34 0 -2.34 -1.7 c0 -0.74 2.08 -8.72 2.96 -8.72 c0 0 1.72 0.32 1.72 1.34 l-0.02 0 c-0.16 0 -0.46 0.68 -0.82 1.7 c0.98 -1.58 2.1 -2.88 3.04 -3.04 l0.18 0 c1.26 0 1.92 1.16 1.92 1.56 c0 0.88 -0.44 2.48 -1.12 2.48 c-1.16 0 -1.54 -0.82 -1.54 -0.82 c0.04 -0.02 0.26 -0.74 0.26 -1.36 l-0.02 -0.24 c-1.3 0.98 -2.66 3.14 -3.68 4.94 c-0.32 1.4 -0.54 2.82 -0.54 3.86 z  M57.92 23.94 c0 0 -1.12 0 -1.82 -0.58 c-1.54 -0.84 -2.5 -1.08 -3.08 -1.08 c-0.78 0 -0.96 0.42 -1.04 0.56 c0 0 -0.26 -0.74 -0.26 -1.48 c0 -0.72 0.24 -1.42 1.18 -1.48 c-0.78 -0.32 -1.18 -1.1 -1.18 -1.42 c0 -2.18 2.02 -6.24 2.02 -8.86 c1.36 0 2.04 1.04 2.04 1.84 c0 1.52 -1.7 5.18 -1.7 6.78 l0.02 0.22 c0.88 -0.66 1.78 -1.84 2.58 -3.12 c0.74 -3.02 1.7 -5.72 2.32 -5.72 c0 0 1.72 0.34 1.72 1.36 c-0.6 0 -2.8 7.14 -2.8 12.98 z M55.68 20.74 c0.08 -0.78 0.22 -1.66 0.38 -2.58 c-0.74 1 -1.5 1.72 -2.18 1.86 c0.48 0.12 1.08 0.36 1.8 0.72 z M66.10000000000001 20 c-2.34 0 -3.28 -1.74 -3.28 -4.04 c0 -4.52 3.58 -11.2 7.2 -11.2 l0.18 0 c2.56 0.06 3.4 1.66 3.4 3.5 c0 2.58 -1.64 5.62 -2.56 5.62 c-1.06 0 -1.6 -0.66 -1.62 -0.66 c0 -0.02 1.52 -3.04 1.52 -5.1 c0 -0.7 -0.18 -1.28 -0.64 -1.62 c-2.1 1.44 -4.8 7 -4.8 10 c0 0.74 0.18 1.32 0.54 1.64 c2.1 -0.66 2.66 -2.38 2.66 -2.68 c0 0 1.68 0.4 1.68 1.62 c0 0.94 -1.16 2.92 -4.28 2.92 z M78.11999999999999 20.04 c0 0 -2.34 0 -2.34 -1.7 c0 -0.18 0.14 -0.84 0.34 -1.7 c-1.02 1.74 -2.22 3.22 -3.24 3.38 l-0.04 0 l-0.04 0.02 l-0.1 0 c-1.26 0 -1.92 -1.18 -1.92 -1.58 c0 -2.18 2.08 -8.86 5.78 -8.86 c0.82 0 1.08 0.82 1.08 1.72 l0 0.22 c0.3 -0.78 0.56 -1.4 0.8 -1.7 l0.1 -0.12 c0.08 -0.08 0.14 -0.12 0.2 -0.12 c0 0 1.72 0.34 1.72 1.36 l-0.02 0 c-0.5 0 -2.32 6.1 -2.32 9.08 z M73.24 18.36 c1.42 -1.16 2.92 -3.76 3.96 -5.84 c-0.06 -0.48 -0.18 -1 -0.38 -1.36 c-1.62 1.02 -3.6 5.3 -3.6 7.08 z M81.97999999999999 20.04 c0 0 -2.34 0 -2.34 -1.7 c0 -0.74 2.08 -8.72 2.96 -8.72 c0 0 1.72 0.32 1.72 1.34 l-0.02 0 c-0.16 0 -0.46 0.68 -0.82 1.7 c0.98 -1.58 2.1 -2.88 3.04 -3.04 l0.18 0 c1.26 0 1.92 1.16 1.92 1.56 c0 0.88 -0.44 2.48 -1.12 2.48 c-1.16 0 -1.54 -0.82 -1.54 -0.82 c0.04 -0.02 0.26 -0.74 0.26 -1.36 l-0.02 -0.24 c-1.3 0.98 -2.66 3.14 -3.68 4.94 c-0.32 1.4 -0.54 2.82 -0.54 3.86 z  M94.63999999999999 20.04 c0 0 -2.34 0 -2.34 -1.7 c0 -0.44 0.1 -1.06 0.24 -1.78 c-1.04 1.8 -2.26 3.3 -3.28 3.46 l-0.06 0 l-0.02 0.02 l-0.1 0 c-1.26 0 -1.92 -1.18 -1.92 -1.58 c0 -2.18 2.08 -8.86 5.78 -8.86 c0.84 0 1.08 0.84 1.08 1.76 l0 0.12 c0.96 -2.7 2.02 -5.08 2.46 -5.08 c0 0 1.72 0.34 1.72 1.36 c-0.68 0 -3.56 8.66 -3.56 12.28 z M89.61999999999999 18.36 c1.42 -1.16 2.92 -3.76 3.96 -5.84 c-0.06 -0.48 -0.18 -1 -0.4 -1.36 c-1.6 1.02 -3.56 5.26 -3.56 7.06 l0 0.14 z M103.7 20 c-2.34 0 -3.26 -1.74 -3.26 -4.04 c0 -4.52 3.58 -11.2 7.2 -11.2 l0.16 0 c2.58 0.06 3.42 1.66 3.42 3.5 c0 2.58 -1.66 5.62 -2.56 5.62 c-1.08 0 -1.62 -0.66 -1.64 -0.66 c0 -0.02 1.52 -3.06 1.52 -5.12 c0 -0.68 -0.16 -1.28 -0.62 -1.6 c-2.12 1.44 -4.8 7.02 -4.8 10.02 c0 0.72 0.16 1.3 0.52 1.62 c0.92 -0.28 1.56 -0.78 1.96 -1.26 c-0.62 -0.32 -1.06 -0.9 -1.06 -1.86 c0 0 1.04 0.1 2.18 0.1 c1.36 0 2.86 -0.14 2.86 -0.72 c0 0 0.38 0.66 0.38 1.54 c0 0.46 -0.78 0.92 -1.74 1.12 c-0.16 -0.62 -0.48 -0.66 -0.58 -0.66 l-0.02 0 c0.32 0.06 0.36 0.72 0.36 0.72 c-0.02 0.94 -1.2 2.88 -4.28 2.88 z M116.97999999999999 20.04 c0 0 -2.34 0 -2.34 -1.7 c0 -0.18 0.14 -0.84 0.34 -1.7 c-1.02 1.74 -2.22 3.22 -3.24 3.38 l-0.04 0 l-0.04 0.02 l-0.1 0 c-1.26 0 -1.92 -1.18 -1.92 -1.58 c0 -2.18 2.08 -8.86 5.78 -8.86 c0.82 0 1.08 0.82 1.08 1.72 l0 0.22 c0.3 -0.78 0.56 -1.4 0.8 -1.7 l0.1 -0.12 c0.08 -0.08 0.14 -0.12 0.2 -0.12 c0 0 1.72 0.34 1.72 1.36 l-0.02 0 c-0.5 0 -2.32 6.1 -2.32 9.08 z M112.1 18.36 c1.42 -1.16 2.92 -3.76 3.96 -5.84 c-0.06 -0.48 -0.18 -1 -0.38 -1.36 c-1.62 1.02 -3.6 5.3 -3.6 7.08 z M131.32 20.04 c0 0 -2.46 -0.44 -2.46 -1.84 c0 -1.52 1.68 -5.14 1.68 -6.74 l-0.02 -0.24 c-1.48 1.1 -3.06 3.78 -4.12 5.86 c-0.2 0.94 -0.32 1.92 -0.32 2.96 c0 0 -0.44 -0.08 -0.96 -0.28 l-0.02 0 c-0.68 -0.28 -1.48 -0.76 -1.48 -1.56 c0 -1.52 1.7 -5.18 1.7 -6.76 l-0.02 -0.22 c-1.48 1.1 -3.04 3.74 -4.1 5.8 c-0.22 1.12 -0.36 2.18 -0.36 3.02 c0 0 -2.34 0 -2.34 -1.7 c0 -0.74 2.08 -8.74 2.96 -8.74 c0 0 1.72 0.34 1.72 1.36 l-0.02 0 c-0.2 0 -0.62 1 -1.06 2.44 c1.08 -1.92 2.4 -3.6 3.48 -3.78 l0.06 0 l0.12 -0.02 c1.26 0 1.92 1.18 1.92 1.58 c0 0.66 -0.14 1.4 -0.36 2.22 c1.1 -1.92 2.4 -3.6 3.48 -3.78 l0.06 0 l0.14 -0.02 c1.26 0 1.92 1.18 1.92 1.58 c0 2.18 -1.6 5.24 -1.6 8.86 z M134.76 20.04 l-0.12 0 c-1.22 -0.06 -1.84 -1.18 -1.84 -1.58 c0 -2.18 2.06 -8.86 5.78 -8.86 c1.26 0 1.92 1.18 1.92 1.58 c0 0.48 -0.12 1.16 -0.34 1.68 c0 0 -0.84 2.44 -4.26 2.74 c-0.38 1.02 -0.64 1.98 -0.64 2.62 l0 0.14 c2.12 -0.62 3.24 -2.54 3.24 -3.12 c0 0 0.84 0.28 0.84 1.5 c0 0.38 -1.88 3.24 -4.58 3.3 z M136.34 14.620000000000001 c1 -0.52 1.52 -1.78 1.52 -1.78 c0 -0.04 0.14 -0.5 0.2 -1 c-0.6 0.7 -1.22 1.72 -1.72 2.78 z"/></g>
			</g>
		</svg>
	